<svg xmlns="http://www.w3.org/2000/svg" xmlns:xlink="http://www.w3.org/1999/xlink" viewBox="0 0 500 500"><defs><style>.a825404e-c6f4-41a8-99ad-990c78cbafc7{fill:none;}.e1dd14f6-744b-4bbe-ae0e-97e55d76b703{isolation:isolate;}.b447a33d-f85b-4066-869e-c10640694844{fill:#603813;}.ae8fe466-768c-453f-a94f-4824f9bb959b{fill:#009245;}.b0c50eb4-6303-45e3-97b6-50732f3c5d33{clip-path:url(#b678127a-0449-4d2a-970e-c25d1f178fcf);}.e97b20ed-a0ed-4c30-9b64-e32f074ebae5{opacity:0.3;}.b9ac43dd-606d-4390-81fb-0583291d6028,.e97b20ed-a0ed-4c30-9b64-e32f074ebae5{mix-blend-mode:overlay;}.a11fa4e7-2788-44cb-a3a9-255e447ae3ba{fill:#ccc;}.e5207f1d-7ff6-4731-9d90-804f39cdf5a9{fill:#e6e6e6;}.b9ac43dd-606d-4390-81fb-0583291d6028{opacity:0.5;}</style><clipPath id="b678127a-0449-4d2a-970e-c25d1f178fcf"><polygon class="a825404e-c6f4-41a8-99ad-990c78cbafc7" points="330 310 335 310 310 250 315 250 290 190 295 190 270 130 275 130 250 70 225 130 230 130 205 190 210 190 185 250 190 250 165 310 170 310 145 370 150 370 170 370 195 370 225 370 225 430 275 430 275 370 305 370 330 370 350 370 355 370 330 310"/></clipPath></defs><title>pt-mail</title><g class="e1dd14f6-744b-4bbe-ae0e-97e55d76b703"><g id="b7b5c687-0549-4393-b6ab-eea495887b90" data-name="Icon"><rect class="b447a33d-f85b-4066-869e-c10640694844" x="225" y="370" width="50" height="60"/><polygon class="ae8fe466-768c-453f-a94f-4824f9bb959b" points="250 70 150 370 250 370 350 370 250 70"/><polygon class="ae8fe466-768c-453f-a94f-4824f9bb959b" points="250 70 225 130 250 130 275 130 250 70"/><polygon class="ae8fe466-768c-453f-a94f-4824f9bb959b" points="270 130 245 190 270 190 295 190 270 130"/><polygon class="ae8fe466-768c-453f-a94f-4824f9bb959b" points="230 130 205 190 230 190 255 190 230 130"/><polygon class="ae8fe466-768c-453f-a94f-4824f9bb959b" points="210 190 185 250 210 250 235 250 210 190"/><polygon class="ae8fe466-768c-453f-a94f-4824f9bb959b" points="290 190 265 250 290 250 315 250 290 190"/><polygon class="ae8fe466-768c-453f-a94f-4824f9bb959b" points="190 250 165 310 190 310 215 310 190 250"/><polygon class="ae8fe466-768c-453f-a94f-4824f9bb959b" points="310 250 285 310 310 310 335 310 310 250"/><polygon class="ae8fe466-768c-453f-a94f-4824f9bb959b" points="170 310 145 370 170 370 195 370 170 310"/><polygon class="ae8fe466-768c-453f-a94f-4824f9bb959b" points="330 310 305 370 330 370 355 370 330 310"/><g class="b0c50eb4-6303-45e3-97b6-50732f3c5d33"><rect class="e97b20ed-a0ed-4c30-9b64-e32f074ebae5" x="250" y="70" width="105" height="360"/></g><rect class="a11fa4e7-2788-44cb-a3a9-255e447ae3ba" x="100" y="175" width="300" height="150"/><polygon class="ae8fe466-768c-453f-a94f-4824f9bb959b" points="110 175 390 175 250 245 110 175"/><polygon class="e5207f1d-7ff6-4731-9d90-804f39cdf5a9" points="400 325 250 225 100 325 400 325"/><polygon class="b9ac43dd-606d-4390-81fb-0583291d6028" points="400 175 250 325 100 175 400 175"/><polygon class="ae8fe466-768c-453f-a94f-4824f9bb959b" points="400 175 250 275 100 175 400 175"/><rect class="e97b20ed-a0ed-4c30-9b64-e32f074ebae5" x="250" y="175" width="150" height="150"/></g><g id="f9415565-8819-44f1-bda0-3991ca356678" data-name="Hidden Box"><rect class="a825404e-c6f4-41a8-99ad-990c78cbafc7" width="500" height="500"/></g></g></svg>