<svg xmlns="http://www.w3.org/2000/svg" width="2560" height="256" viewBox="0 0 2560 256">
  <title>js-banner</title>
  <rect width="1280" height="256" fill="#111"/>
  <rect x="1280" width="1280" height="256" fill="#fff"/>
  <g>
    <path d="M166.416,83.633H116.24V38.578h96.768V144.305q0,23.809-9.472,41.089a64.144,64.144,0,0,1-25.984,26.239,75.784,75.784,0,0,1-36.736,8.961,69.6,69.6,0,0,1-35.968-9.729,72.946,72.946,0,0,1-26.24-26.24,69.568,69.568,0,0,1-9.728-35.968h46.592q0,11.779,6.784,19.712t18.3,7.936q12.288,0,19.072-7.807t6.784-22.912Z" fill="#fff"/>
    <path d="M260.878,38.578h9.472V148.657A60.42,60.42,0,0,0,278.8,179.89a63.356,63.356,0,0,0,22.784,22.784,61.962,61.962,0,0,0,62.464,0A63.388,63.388,0,0,0,386.83,179.89a60.42,60.42,0,0,0,8.448-31.233V38.578h9.472V148.657a69.607,69.607,0,0,1-9.728,35.968,72.977,72.977,0,0,1-26.24,26.24,71.351,71.351,0,0,1-71.936,0,72.946,72.946,0,0,1-26.24-26.24,69.568,69.568,0,0,1-9.728-35.968Z" fill="#fff"/>
    <path d="M490.635,121.905q-13.7-5.244-21.5-14.336t-7.808-23.423a44.7,44.7,0,0,1,7.808-26.113q7.806-11.262,22.016-17.408t32.9-6.144a72.051,72.051,0,0,1,32.9,7.552,59.2,59.2,0,0,1,23.68,21.12,56.149,56.149,0,0,1,8.7,30.976h-9.471a48.087,48.087,0,0,0-7.424-26.624A49.406,49.406,0,0,0,552.2,49.713a63.739,63.739,0,0,0-28.416-6.272,75.5,75.5,0,0,0-25.856,4.352,45.067,45.067,0,0,0-19.584,13.312q-7.554,8.965-7.552,22.528,0,12.288,7.168,19.584a46.077,46.077,0,0,0,18.688,11.137,306.361,306.361,0,0,0,32.256,8.191q20.988,4.356,32.64,8.32a45.076,45.076,0,0,1,19.712,13.184q8.064,9.216,8.064,25.856t-8.832,28.033a53.059,53.059,0,0,1-23.424,17.023,87.491,87.491,0,0,1-31.744,5.633q-21.252,0-37.376-7.937a57.307,57.307,0,0,1-24.7-22.4q-8.58-14.462-8.576-33.153h9.472q0,16.386,7.3,28.672a48.884,48.884,0,0,0,21.12,19.073q13.824,6.785,32.768,6.783,23.55,0,39.04-11.264t15.489-30.72q0-13.308-6.657-20.479A38.141,38.141,0,0,0,556.428,138.8q-10.116-3.2-30.337-7.295Q504.329,127.154,490.635,121.905Z" fill="#fff"/>
    <path d="M783.625,38.578v9.471H716.3V216.754h-9.216V48.049H639.753V38.578Z" fill="#fff"/>
    <path d="M958.982,38.578v9.471H905.734V207.281h53.248v9.473H843.526v-9.473h52.993V48.049H843.526V38.578Z" fill="#fff"/>
    <path d="M1020.932,216.754V38.578h9.984l124.416,120.831V38.578h9.472V216.754h-9.472V172.721L1030.4,50.865V216.754Z" fill="#fff"/>
    <path d="M1413.5,203.825q-20.1-17.532-19.84-52.608h41.728q-.258,14.592,8.7,22.272t25.088,7.681q13.308,0,20.992-4.353a14.3,14.3,0,0,0,7.679-13.311q0-7.422-7.807-10.752a73.274,73.274,0,0,0-15.488-4.736q-7.681-1.4-9.472-1.664a205.034,205.034,0,0,1-34.048-9.344,59.291,59.291,0,0,1-24.064-16.769q-9.733-11.262-9.728-29.7t9.728-31.359a58.529,58.529,0,0,1,25.984-19.329,96,96,0,0,1,35.456-6.4q23.291,0,40.319,8.7a62.765,62.765,0,0,1,26.752,26.367,44.444,44.444,0,0,1,5.889,16.257,117.606,117.606,0,0,1,1.023,15.232h-41.727q0-13.826-7.424-20.352t-23.04-6.529q-12.546,0-19.456,4.352t-6.912,11.777q0,8.194,9.216,12.031a138.249,138.249,0,0,0,23.3,6.912q23.04,4.608,35.967,8.833a50.332,50.332,0,0,1,22.4,14.976q9.468,10.752,9.471,30.208,0,18.432-10.239,31.743a65.059,65.059,0,0,1-27.009,20.352,92.63,92.63,0,0,1-36.223,7.04Q1433.6,221.361,1413.5,203.825Z" fill="#111"/>
    <path d="M1606.269,179.89a64.046,64.046,0,0,0,23.04,22.784,61.1,61.1,0,0,0,31.359,8.447,70.5,70.5,0,0,0,31.488-6.912,54.668,54.668,0,0,0,22.144-19.2,50.9,50.9,0,0,0,8.32-27.649h9.216a57.961,57.961,0,0,1-9.344,32.128,65.062,65.062,0,0,1-25.6,22.784,78.383,78.383,0,0,1-36.225,8.321,70.273,70.273,0,0,1-36.1-9.729,72.623,72.623,0,0,1-26.368-26.24,69.568,69.568,0,0,1-9.727-35.968V106.673a70.31,70.31,0,0,1,9.6-35.967,72,72,0,0,1,26.112-26.241,69.609,69.609,0,0,1,35.968-9.728,77.813,77.813,0,0,1,35.968,8.321,66.093,66.093,0,0,1,25.729,22.783,57.429,57.429,0,0,1,9.471,32.128h-9.216a50.306,50.306,0,0,0-8.448-27.648,55.806,55.806,0,0,0-22.143-19.2,69.69,69.69,0,0,0-31.361-6.913,60.421,60.421,0,0,0-31.232,8.448,63.369,63.369,0,0,0-22.783,22.784,60.42,60.42,0,0,0-8.449,31.232v41.984A59.7,59.7,0,0,0,1606.269,179.89Z" fill="#111"/>
    <path d="M1779.706,216.754V38.578h9.472V122.8H1907.45V38.578h9.472V216.754h-9.472V132.273H1789.178v84.481Z" fill="#111"/>
    <path d="M2032.888,38.578h9.983l73.216,178.176h-10.239l-24.065-58.881h-87.807l-24.321,58.881h-9.984Zm-35.073,110.079h80.128l-40.192-97.792Z" fill="#111"/>
    <path d="M2222.325,38.578h9.984l73.215,178.176h-10.239l-24.064-58.881h-87.808l-24.32,58.881h-9.985Zm-35.072,110.079h80.128l-40.193-97.792Z" fill="#111"/>
    <path d="M2357.49,38.578h132.864v9.471H2366.962V122.8H2466.8v9.472h-99.841v84.481h-9.472Z" fill="#111"/>
  </g>
</svg>
