<svg xmlns="http://www.w3.org/2000/svg" width="1280" height="512" viewBox="0 0 1280 512">
  <title>js-fullname</title>
  <rect width="1280" height="256" fill="#111"/>
  <rect y="256" width="1280" height="256" fill="#fff"/>
  <g>
    <path d="M189.447,82.88H139.271V37.824H236.04V143.552q0,23.808-9.473,41.088a64.152,64.152,0,0,1-25.984,26.24,75.777,75.777,0,0,1-36.735,8.96,69.61,69.61,0,0,1-35.969-9.728,72.951,72.951,0,0,1-26.239-26.24A69.559,69.559,0,0,1,91.912,147.9H138.5q0,11.778,6.785,19.712t18.3,7.936q12.289,0,19.073-7.808t6.783-22.912Z" fill="#fff"/>
    <path d="M283.909,37.824h9.472V147.9a60.419,60.419,0,0,0,8.448,31.232,63.341,63.341,0,0,0,22.784,22.784,61.956,61.956,0,0,0,62.464,0,63.372,63.372,0,0,0,22.784-22.784,60.419,60.419,0,0,0,8.448-31.232V37.824h9.472V147.9a69.607,69.607,0,0,1-9.728,35.968,72.977,72.977,0,0,1-26.24,26.24,71.357,71.357,0,0,1-71.936,0,72.946,72.946,0,0,1-26.24-26.24,69.568,69.568,0,0,1-9.728-35.968Z" fill="#fff"/>
    <path d="M513.667,121.152q-13.7-5.244-21.5-14.336t-7.809-23.424a44.692,44.692,0,0,1,7.809-26.112q7.806-11.262,22.016-17.408t32.9-6.144a72.054,72.054,0,0,1,32.9,7.552A59.2,59.2,0,0,1,603.65,62.4a56.147,56.147,0,0,1,8.7,30.976h-9.472q0-15.1-7.424-26.624A49.4,49.4,0,0,0,575.234,48.96a63.733,63.733,0,0,0-28.416-6.272,75.478,75.478,0,0,0-25.856,4.352,45.073,45.073,0,0,0-19.584,13.312q-7.554,8.964-7.551,22.528,0,12.288,7.168,19.584A46.069,46.069,0,0,0,519.683,113.6a306.475,306.475,0,0,0,32.255,8.192q20.99,4.356,32.641,8.32A45.079,45.079,0,0,1,604.291,143.3q8.063,9.216,8.063,25.856t-8.832,28.032A53.056,53.056,0,0,1,580.1,214.208a87.493,87.493,0,0,1-31.745,5.632q-21.251,0-37.375-7.936a57.311,57.311,0,0,1-24.7-22.4q-8.578-14.46-8.575-33.152h9.471q0,16.386,7.3,28.672a48.894,48.894,0,0,0,21.12,19.072q13.825,6.786,32.768,6.784,23.551,0,39.041-11.264t15.487-30.72q0-13.308-6.655-20.48a38.126,38.126,0,0,0-16.769-10.368q-10.116-3.2-30.335-7.3Q527.36,126.4,513.667,121.152Z" fill="#fff"/>
    <path d="M806.656,37.824V47.3H739.328V216h-9.216V47.3H662.784V37.824Z" fill="#fff"/>
    <path d="M982.014,37.824V47.3H928.766V206.528h53.248V216H866.558v-9.472H919.55V47.3H866.558V37.824Z" fill="#fff"/>
    <path d="M1043.963,216V37.824h9.984l124.416,120.832V37.824h9.472V216h-9.472V171.968L1053.435,50.112V216Z" fill="#fff"/>
  </g>
  <g>
    <path d="M110.472,459.072q-20.1-17.532-19.841-52.608h41.728q-.257,14.59,8.7,22.272t25.088,7.68q13.308,0,20.993-4.352a14.3,14.3,0,0,0,7.68-13.312q0-7.421-7.808-10.752a73.4,73.4,0,0,0-15.489-4.736q-7.678-1.4-9.471-1.664a204.977,204.977,0,0,1-34.049-9.344,59.3,59.3,0,0,1-24.064-16.768q-9.73-11.262-9.728-29.7t9.728-31.36A58.537,58.537,0,0,1,129.928,295.1a95.992,95.992,0,0,1,35.455-6.4q23.293,0,40.321,8.7a62.793,62.793,0,0,1,26.752,26.367,44.459,44.459,0,0,1,5.888,16.257,117.8,117.8,0,0,1,1.024,15.232H197.64q0-13.824-7.425-20.352t-23.04-6.528q-12.544,0-19.455,4.352t-6.912,11.776q0,8.2,9.215,12.032a138.371,138.371,0,0,0,23.3,6.912q23.042,4.606,35.969,8.832a50.343,50.343,0,0,1,22.4,14.976q9.468,10.752,9.472,30.209,0,18.43-10.241,31.743a65.074,65.074,0,0,1-27.007,20.352,92.663,92.663,0,0,1-36.224,7.039Q130.565,476.607,110.472,459.072Z" fill="#111"/>
    <path d="M303.237,435.137a64.059,64.059,0,0,0,23.04,22.783,61.094,61.094,0,0,0,31.36,8.448,70.5,70.5,0,0,0,31.488-6.912,54.67,54.67,0,0,0,22.144-19.2,50.9,50.9,0,0,0,8.32-27.649h9.216a57.973,57.973,0,0,1-9.344,32.129,65.057,65.057,0,0,1-25.6,22.784,78.378,78.378,0,0,1-36.224,8.32,70.273,70.273,0,0,1-36.1-9.729,72.605,72.605,0,0,1-26.368-26.239,69.571,69.571,0,0,1-9.728-35.968V361.92a70.314,70.314,0,0,1,9.6-35.968,71.972,71.972,0,0,1,26.112-26.24,69.616,69.616,0,0,1,35.968-9.728,77.813,77.813,0,0,1,35.968,8.321,66.075,66.075,0,0,1,25.728,22.783,57.42,57.42,0,0,1,9.472,32.128h-9.216a50.317,50.317,0,0,0-8.448-27.648,55.82,55.82,0,0,0-22.144-19.2,69.7,69.7,0,0,0-31.36-6.912,60.409,60.409,0,0,0-31.232,8.448,63.372,63.372,0,0,0-22.784,22.784,60.429,60.429,0,0,0-8.448,31.232V403.9A59.713,59.713,0,0,0,303.237,435.137Z" fill="#111"/>
    <path d="M476.674,472V293.824h9.472v84.224H604.418V293.824h9.473V472h-9.473V387.52H486.146V472Z" fill="#111"/>
    <path d="M729.856,293.824h9.984L813.056,472h-10.24l-24.064-58.88H690.944L666.624,472H656.64ZM694.784,403.9h80.128L734.72,306.111Z" fill="#111"/>
    <path d="M919.294,293.824h9.983L1002.493,472H992.254l-24.065-58.88H880.382L856.062,472h-9.985ZM884.222,403.9H964.35l-40.193-97.793Z" fill="#111"/>
    <path d="M1054.459,293.824h132.864V303.3H1063.931v74.752h99.84v9.472h-99.84V472h-9.472Z" fill="#111"/>
  </g>
</svg>
