<svg xmlns="http://www.w3.org/2000/svg" width="2048" height="2048" viewBox="0 0 2048 2048">
  <title>js-stylesheet</title>
  <g>
    <polygon points="128 528 1024 0 1024 256 352 652 128 528" fill="#e12"/>
    <polygon points="1024 0 1920 528 1696 652 1024 256 1024 0" fill="#ed7623"/>
    <polygon points="1920 528 1696 652 1696 1396 1920 1520 1920 528" fill="#f6ce3d"/>
    <polygon points="1024 2048 1920 1520 1696 1396 1024 1792 1024 2048" fill="#3c3"/>
    <polygon points="128 1520 1024 2048 1024 1792 352 1396 128 1520" fill="#6cf"/>
    <polygon points="128 528 352 652 352 1396 128 1520 128 528" fill="#90c"/>
    <g>
      <polygon points="302 1424.571 302 623.428 1024 197.964 1746 623.428 1746 1424.571 1024 1850.035 302 1424.571" fill="#111"/>
      <path d="M1024,256l672,396v744l-672,396L352,1396V652l672-396m0-116.071-50.769,29.917-672,396L252,594.857v858.286l49.231,29.011,672,396L1024,1908.071l50.769-29.917,672-396L1796,1453.143V594.857l-49.231-29.011-672-396L1024,139.929Z" fill="#111"/>
    </g>
  </g>
  <g>
    <path d="M752.141,848.383h-200.7V668.164H938.5V1091.07q0,95.25-37.891,164.36-37.9,69.139-103.937,104.968-66.047,35.813-146.938,35.829-77.835,0-143.875-38.907a291.858,291.858,0,0,1-104.968-104.968q-38.907-66.048-38.907-143.875H548.359q0,47.109,27.125,78.859,27.141,31.734,73.219,31.734,49.149,0,76.3-31.218t27.141-91.657Z" fill="#fff"/>
    <path d="M1291.25,1001.477q-54.8-21-86.016-57.344t-31.218-93.7q0-59.391,31.218-104.438t88.063-69.64q56.837-24.562,131.594-24.579,71.671,0,131.578,30.219t94.719,84.485q34.827,54.28,34.828,123.89h-37.891q0-60.4-29.7-106.484t-80.891-71.172q-51.21-25.079-113.656-25.094-55.312,0-103.437,17.406-48.141,17.415-78.329,53.25-30.21,35.86-30.2,90.11,0,49.171,28.672,78.344,28.665,29.2,74.75,44.546,46.079,15.375,129.016,32.766,83.954,17.414,130.562,33.281a180.08,180.08,0,0,1,78.844,52.735q32.25,36.867,32.266,103.422,0,66.563-35.328,112.125-35.345,45.563-93.7,68.093t-126.968,22.532q-85.008,0-149.516-31.735t-98.812-89.609q-34.312-57.845-34.3-132.61h37.89q0,65.532,29.172,114.688,29.179,49.171,84.485,76.3,55.288,27.141,131.078,27.125,94.2,0,156.156-45.047t61.953-122.891q0-53.226-26.625-81.906t-67.078-41.484q-40.454-12.8-121.344-29.172Q1346.032,1022.468,1291.25,1001.477Z" fill="#fff"/>
  </g>
</svg>
