<svg xmlns="http://www.w3.org/2000/svg" viewBox="0 0 1792 2048">
    <defs>
        <style>
            @import url('https://fonts.googleapis.com/css?family=Major+Mono+Display');
            .acbbe6f9-9279-45f9-b64b-e31fe1960594 {
                fill:#b13535;
            }
            .ab562be3-1ee0-4d93-8977-e740434c1c7c {
                fill:#ff6a00;
            }
            .fdd89491-457c-417f-a88c-9667e3671973 {
                fill:#faaf3a;
            }
            .bd0d311e-fcff-4751-82a7-81de712a5063 {
                fill:#009245;
            }
            .b4d09b11-b572-4478-95b7-077560d8762c {
                fill:#7ec8ff;
            }
            .eefbcfc2-acd4-4885-a4c8-f04bf09fa2f1 {
                fill:#662c91;
            }
            .aa8eadbe-6190-45fb-ae4e-ef145ef76cc5 {
                fill:#111;
            }
            .b7ab4f24-f83d-4604-ae62-51dc42de6925 {
                fill:#fff;
            }
        </style>
    </defs>
    <title>Reference Stylesheet</title>
    <g id="bb598787-080e-42ce-b293-3b51927c4047" data-name="Layer 3">
        <polygon class="acbbe6f9-9279-45f9-b64b-e31fe1960594" points="0 528 896 0 896 256 224 652 0 528"/>
        <polygon class="ab562be3-1ee0-4d93-8977-e740434c1c7c" points="896 0 1792 528 1568 652 896 256 896 0"/>
        <polygon class="fdd89491-457c-417f-a88c-9667e3671973" points="1792 528 1568 652 1568 1396 1792 1520 1792 528"/>
        <polygon class="bd0d311e-fcff-4751-82a7-81de712a5063" points="896 2048 1792 1520 1568 1396 896 1792 896 2048"/>
        <polygon class="b4d09b11-b572-4478-95b7-077560d8762c" points="0 1520 896 2048 896 1792 224 1396 0 1520"/>
        <polygon class="eefbcfc2-acd4-4885-a4c8-f04bf09fa2f1" points="0 528 224 652 224 1396 0 1520 0 528"/>
        <polygon class="aa8eadbe-6190-45fb-ae4e-ef145ef76cc5" points="174 1424.57 174 623.43 896 197.96 1618 623.43 1618 1424.57 896 1850.04 174 1424.57"/>
        <path class="aa8eadbe-6190-45fb-ae4e-ef145ef76cc5" d="M1024,256l672,396v744l-672,396L352,1396V652l672-396m0-116.07-50.77,29.92-672,396-49.23,29v858.28l49.23,29,672,396,50.77,29.92,50.77-29.92,672-396,49.23-29V594.86l-49.23-29-672-396L1024,139.93Z" transform="translate(-128 0)"/>
    </g>
    <g id="a96049d6-1333-41ad-adb0-4199d5962df4" data-name="Layer 5">
        <path class="b7ab4f24-f83d-4604-ae62-51dc42de6925" d="M752.14,848.38H551.44V668.16H938.5v422.91q0,95.25-37.89,164.36t-103.94,105q-66,35.8-146.94,35.83-77.84,0-143.87-38.91a291.93,291.93,0,0,1-105-105Q362,1186.3,362,1108.48H548.36q0,47.1,27.12,78.86t73.22,31.73q49.15,0,76.3-31.22t27.14-91.65Z" transform="translate(-128 0)"/>
        <path class="b7ab4f24-f83d-4604-ae62-51dc42de6925" d="M1291.25,1001.48q-54.8-21-86-57.35T1174,850.43Q1174,791,1205.23,746t88.07-69.64q56.84-24.55,131.59-24.58,71.67,0,131.58,30.22t94.72,84.49Q1686,820.75,1686,890.37h-37.89q0-60.4-29.71-106.49t-80.89-71.17q-51.21-25.08-113.65-25.09-55.32,0-103.44,17.4t-78.33,53.25q-30.21,35.87-30.2,90.11,0,49.17,28.67,78.35t74.75,44.54q46.08,15.38,129,32.77,84,17.41,130.57,33.28a180.16,180.16,0,0,1,78.84,52.73q32.25,36.87,32.27,103.43t-35.33,112.12q-35.34,45.57-93.71,68.1t-127,22.53q-85,0-149.52-31.74t-98.81-89.61q-34.32-57.84-34.3-132.61h37.89q0,65.54,29.17,114.69t84.49,76.3q55.29,27.13,131.08,27.12,94.18,0,156.15-45t62-122.89q0-53.23-26.63-81.91t-67.08-41.49q-40.45-12.79-121.34-29.17Q1346,1022.46,1291.25,1001.48Z" transform="translate(-128 0)"/>
    </g>
</svg>